<svg width="21" height="20" viewBox="0 0 21 20" fill="none" xmlns="http://www.w3.org/2000/svg">
<path d="M4.78571 4.16663H19.0714L17.6428 12.7381H6.21428L4.78571 4.16663Z" stroke="white" stroke-width="1.5" stroke-linecap="round" stroke-linejoin="round"/>
<path d="M7.64287 17.5C8.16886 17.5 8.59525 17.0736 8.59525 16.5476C8.59525 16.0216 8.16886 15.5952 7.64287 15.5952C7.11689 15.5952 6.69049 16.0216 6.69049 16.5476C6.69049 17.0736 7.11689 17.5 7.64287 17.5Z" stroke="white" stroke-width="1.5" stroke-linecap="round" stroke-linejoin="round"/>
<path d="M16.2143 17.5C16.7403 17.5 17.1667 17.0736 17.1667 16.5476C17.1667 16.0216 16.7403 15.5952 16.2143 15.5952C15.6883 15.5952 15.2619 16.0216 15.2619 16.5476C15.2619 17.0736 15.6883 17.5 16.2143 17.5Z" stroke="white" stroke-width="1.5" stroke-linecap="round" stroke-linejoin="round"/>
<path d="M4.78573 4.16663H1.92859" stroke="white" stroke-width="1.5" stroke-linecap="round" stroke-linejoin="round"/>
</svg>
