<svg xmlns="http://www.w3.org/2000/svg" xmlns:xlink="http://www.w3.org/1999/xlink" width="375" height="3720" viewBox="0 0 375 3720">
  <defs>
    <clipPath id="clip-path">
      <rect width="151" height="40" fill="none"/>
    </clipPath>
    <clipPath id="clip-path-2">
      <rect width="327" height="656" fill="none"/>
    </clipPath>
    <clipPath id="clip-path-3">
      <rect width="16" height="16" fill="none"/>
    </clipPath>
    <clipPath id="clip-path-5">
      <rect width="6" height="10" fill="none"/>
    </clipPath>
    <clipPath id="clip-path-7">
      <rect width="327" height="640" fill="none"/>
    </clipPath>
    <clipPath id="clip-path-8">
      <rect width="327" height="806" fill="none"/>
    </clipPath>
    <clipPath id="clip-path-13">
      <rect width="327" height="298" fill="none"/>
    </clipPath>
    <clipPath id="clip-path-16">
      <rect width="375" height="44" fill="none"/>
    </clipPath>
    <clipPath id="clip-path-17">
      <rect width="54" height="18" fill="none"/>
    </clipPath>
    <clipPath id="clip-path-18">
      <circle id="Ellipse_10" data-name="Ellipse 10" cx="8" cy="8" r="8" transform="translate(1084 756)" fill="#fff"/>
    </clipPath>
    <clipPath id="clip-path-19">
      <rect width="16" height="14.001" fill="none"/>
    </clipPath>
    <clipPath id="clip-path-20">
      <rect width="16" height="16.001" fill="none"/>
    </clipPath>
    <clipPath id="clip-Mobile_1">
      <rect width="375" height="3720"/>
    </clipPath>
    <pattern id="pattern" preserveAspectRatio="xMidYMid slice" width="100%" height="100%" viewBox="0 0 1800 1350">
      <image width="1800" height="1350" xlink:href="pattern.jpeg"/>
    </pattern>
    <pattern id="pattern-2" preserveAspectRatio="xMidYMid slice" width="100%" height="100%" viewBox="0 0 3888 2592">
      <image width="3888" height="2592" xlink:href="pattern-2.jpeg"/>
    </pattern>
    <pattern id="pattern-3" preserveAspectRatio="xMidYMid slice" width="100%" height="100%" viewBox="0 0 1800 1800">
      <image width="1800" height="1800" xlink:href="pattern-3.jpeg"/>
    </pattern>
    <pattern id="pattern-4" preserveAspectRatio="xMidYMid slice" width="100%" height="100%" viewBox="0 0 1800 1200">
      <image width="1800" height="1200" xlink:href="pattern-4.jpeg"/>
    </pattern>
    <pattern id="pattern-5" preserveAspectRatio="xMidYMid slice" width="100%" height="100%" viewBox="0 0 1050 500">
      <image width="1050" height="500" xlink:href="pattern-5.jpeg"/>
    </pattern>
    <pattern id="pattern-6" preserveAspectRatio="xMidYMid slice" width="100%" height="100%" viewBox="0 0 1800 1192">
      <image width="1800" height="1192" xlink:href="pattern-6.jpeg"/>
    </pattern>
    <pattern id="pattern-7" preserveAspectRatio="xMidYMid slice" width="100%" height="100%" viewBox="0 0 1024 698">
      <image width="1024" height="698" xlink:href="pattern-7.jpeg"/>
    </pattern>
    <pattern id="pattern-8" preserveAspectRatio="xMidYMid slice" width="100%" height="100%" viewBox="0 0 1800 2700">
      <image width="1800" height="2700" xlink:href="pattern-8.jpeg"/>
    </pattern>
    <pattern id="pattern-9" preserveAspectRatio="xMidYMid slice" width="100%" height="100%" viewBox="0 0 1800 1180">
      <image width="1800" height="1180" xlink:href="pattern-9.jpeg"/>
    </pattern>
    <pattern id="pattern-10" preserveAspectRatio="xMidYMid slice" width="100%" height="100%" viewBox="0 0 1000 1000">
      <image width="1000" height="1000" xlink:href="pattern-10.jpeg"/>
    </pattern>
  </defs>
  <g id="Mobile_1" data-name="Mobile 1" clip-path="url(#clip-Mobile_1)">
    <rect width="375" height="3720" fill="#f6f8f9"/>
    <g id="Main" transform="translate(-180 40)">
      <rect id="Image" width="375" height="388" transform="translate(180 48)" fill="url(#pattern)"/>
      <rect id="overlay" width="375" height="388" transform="translate(180 48)" fill="rgba(0,0,0,0.2)"/>
      <g id="Title" transform="translate(-106 -146)">
        <text id="For_some_reason_this_country_this_city_this_neighborhood_this_particular_street_is_the_place_you_are_living_a_majority_of_your_life_in." data-name="For some reason — this country, this city, this neighborhood, this particular street —  is the place you are living a majority of your life in." transform="translate(310 412)" fill="#fff" font-size="16" font-family="Helvetica"><tspan x="0" y="12">For some reason — this country, this city, this </tspan><tspan x="0" y="38">neighborhood, this particular street —  is the </tspan><tspan x="0" y="64">place you are living a majority of your life in.</tspan></text>
        <text id="Amazing_places_in_America_to_visit." data-name="Amazing places in America to visit." transform="translate(310 334)" fill="#fff" font-size="24" font-family="Helvetica-Bold, Helvetica" font-weight="700"><tspan x="0" y="18">Amazing places in America </tspan><tspan x="0" y="52">to visit.</tspan></text>
        <g id="Primary_Button" data-name="Primary Button" transform="translate(310 502)" clip-path="url(#clip-path)">
          <rect id="base" width="151" height="40" rx="6" fill="#fa6980"/>
          <text id="LEARN_MORE" data-name="LEARN MORE" transform="translate(76 24)" fill="#fff" font-size="11" font-family="Helvetica-Bold, Helvetica" font-weight="700"><tspan x="-36.972" y="0">LEARN MORE</tspan></text>
        </g>
        <g id="Header">
          <text id="WORLD_NEWS" data-name="WORLD NEWS" transform="translate(310 234)" fill="#fff" font-size="24" font-family="Helvetica-Bold, Helvetica" font-weight="700"><tspan x="0" y="18">WORLD NEWS</tspan></text>
          <path id="divider" d="M4427.848,210.677h327" transform="translate(-4117.848 83.323)" fill="none" stroke="#fff" stroke-linecap="round" stroke-width="2"/>
        </g>
      </g>
    </g>
    <g id="trending" transform="translate(-286 269)">
      <g id="Repeat_Grid_5" data-name="Repeat Grid 5" transform="translate(310 785)" clip-path="url(#clip-path-2)">
        <g id="Group_2" data-name="Group 2" transform="translate(-100 -808)">
          <g id="Base-2" data-name="Base">
            <path id="Base-3" data-name="Base" d="M0,0H327a0,0,0,0,1,0,0V148a6,6,0,0,1-6,6H6a6,6,0,0,1-6-6V0A0,0,0,0,1,0,0Z" transform="translate(100 962)" fill="#fff"/>
            <path id="Image-2" data-name="Image" d="M6,0H321a6,6,0,0,1,6,6V154a0,0,0,0,1,0,0H0a0,0,0,0,1,0,0V6A6,6,0,0,1,6,0Z" transform="translate(100 808)" fill="url(#pattern-2)"/>
          </g>
          <text id="Dolore_magna_aliqua" data-name="Dolore magna aliqua" transform="translate(124 994)" fill="#202124" font-size="16" font-family="Helvetica-Bold, Helvetica" font-weight="700"><tspan x="0" y="12">Dolore magna aliqua</tspan></text>
          <text id="Lorem_ipsum_dolor_sit_amet_ipsum_labitur_lucilius_mel_id_ad_has_appareat." data-name="Lorem ipsum dolor sit amet, ipsum labitur lucilius mel id, ad has appareat." transform="translate(124 1020)" fill="#a6adb4" font-size="13" font-family="AcuminPro-Regular, Acumin Pro"><tspan x="0" y="10">Lorem ipsum dolor sit amet, ipsum labitur </tspan><tspan x="0" y="33">lucilius mel id, ad has appareat.</tspan></text>
          <g id="time" transform="translate(-1176 693)">
            <text id="_2m_ago" data-name="2m ago" transform="translate(1326 387)" fill="#a6adb4" font-size="13" font-family="Helvetica-Oblique, Helvetica" font-style="oblique"><tspan x="0" y="0">2m ago</tspan></text>
            <g id="time-2" data-name="time" transform="translate(1300 375)" clip-path="url(#clip-path-3)">
              <path id="Path_5" data-name="Path 5" d="M8,0a8,8,0,1,0,8,8A8.024,8.024,0,0,0,8,0ZM8,14a6,6,0,1,1,6-6A6.018,6.018,0,0,1,8,14ZM9,7.6l2.7,2.7-1.4,1.4L7,8.4V3H9Z" fill="#cbd0d3"/>
            </g>
          </g>
        </g>
        <g id="Group_2-2" data-name="Group 2" transform="translate(-100 -460)">
          <g id="Base-4" data-name="Base">
            <path id="Base-5" data-name="Base" d="M0,0H327a0,0,0,0,1,0,0V148a6,6,0,0,1-6,6H6a6,6,0,0,1-6-6V0A0,0,0,0,1,0,0Z" transform="translate(100 962)" fill="#fff"/>
            <path id="Image-3" data-name="Image" d="M6,0H321a6,6,0,0,1,6,6V154a0,0,0,0,1,0,0H0a0,0,0,0,1,0,0V6A6,6,0,0,1,6,0Z" transform="translate(100 808)" fill="url(#pattern-3)"/>
          </g>
          <text id="Morbi_eleifend_a_libero" data-name="Morbi eleifend a libero" transform="translate(124 994)" fill="#202124" font-size="16" font-family="Helvetica-Bold, Helvetica" font-weight="700"><tspan x="0" y="12">Morbi eleifend a libero</tspan></text>
          <text id="Lorem_ipsum_dolor_sit_amet_ipsum_labitur_lucilius_mel_id_ad_has_appareat.-2" data-name="Lorem ipsum dolor sit amet, ipsum labitur lucilius mel id, ad has appareat." transform="translate(124 1020)" fill="#a6adb4" font-size="13" font-family="AcuminPro-Regular, Acumin Pro"><tspan x="0" y="10">Lorem ipsum dolor sit amet, ipsum labitur </tspan><tspan x="0" y="33">lucilius mel id, ad has appareat.</tspan></text>
          <g id="time-3" data-name="time" transform="translate(-1176 693)">
            <text id="_1h_ago" data-name="1h ago" transform="translate(1326 387)" fill="#a6adb4" font-size="13" font-family="Helvetica-Oblique, Helvetica" font-style="oblique"><tspan x="0" y="0">1h ago</tspan></text>
            <g id="time-4" data-name="time" transform="translate(1300 375)" clip-path="url(#clip-path-3)">
              <path id="Path_5-2" data-name="Path 5" d="M8,0a8,8,0,1,0,8,8A8.024,8.024,0,0,0,8,0ZM8,14a6,6,0,1,1,6-6A6.018,6.018,0,0,1,8,14ZM9,7.6l2.7,2.7-1.4,1.4L7,8.4V3H9Z" fill="#cbd0d3"/>
            </g>
          </g>
        </g>
      </g>
      <g id="title-2" data-name="title">
        <text id="TRENDING-2" data-name="TRENDING" transform="translate(310 725)" fill="#202124" font-size="24" font-family="Helvetica-Bold, Helvetica" font-weight="700"><tspan x="0" y="18">TRENDING</tspan></text>
        <g id="next_previous" data-name="next / previous" transform="translate(-1083 593)">
          <g id="arrow" transform="translate(1714 137)" clip-path="url(#clip-path-5)">
            <path id="arrow-2" data-name="arrow" d="M5,6a.908.908,0,0,1-.7-.3l-4-4A.967.967,0,0,1,.3.3.967.967,0,0,1,1.7.3L5,3.6,8.3.3A.967.967,0,0,1,9.7.3a.967.967,0,0,1,0,1.4l-4,4A.908.908,0,0,1,5,6Z" transform="translate(0 10) rotate(-90)" fill="#202124"/>
          </g>
          <g id="arrow_back" data-name="arrow back" transform="translate(1676 137)" opacity="0.3">
            <path id="arrow_back-2" data-name="arrow back" d="M5,6a.908.908,0,0,1-.7-.3l-4-4A.967.967,0,0,1,.3.3.967.967,0,0,1,1.7.3L5,3.6,8.3.3A.967.967,0,0,1,9.7.3a.967.967,0,0,1,0,1.4l-4,4A.908.908,0,0,1,5,6Z" transform="translate(6) rotate(90)" fill="#202124"/>
          </g>
        </g>
      </g>
    </g>
    <g id="happening_now" data-name="happening now" transform="translate(-286 542)">
      <g id="title-3" data-name="title">
        <text id="HAPPENING_NOW-2" data-name="HAPPENING NOW" transform="translate(310 1208)" fill="#202124" font-size="24" font-family="Helvetica-Bold, Helvetica" font-weight="700"><tspan x="0" y="18">HAPPENING NOW</tspan></text>
        <g id="next_previous-2" data-name="next / previous" transform="translate(-1083 1076)">
          <g id="arrow-3" data-name="arrow" transform="translate(1714 137)" clip-path="url(#clip-path-5)">
            <path id="arrow-4" data-name="arrow" d="M5,6a.908.908,0,0,1-.7-.3l-4-4A.967.967,0,0,1,.3.3.967.967,0,0,1,1.7.3L5,3.6,8.3.3A.967.967,0,0,1,9.7.3a.967.967,0,0,1,0,1.4l-4,4A.908.908,0,0,1,5,6Z" transform="translate(0 10) rotate(-90)" fill="#202124"/>
          </g>
          <g id="arrow_back-3" data-name="arrow back" transform="translate(1676 137)" opacity="0.3">
            <path id="arrow_back-4" data-name="arrow back" d="M5,6a.908.908,0,0,1-.7-.3l-4-4A.967.967,0,0,1,.3.3.967.967,0,0,1,1.7.3L5,3.6,8.3.3A.967.967,0,0,1,9.7.3a.967.967,0,0,1,0,1.4l-4,4A.908.908,0,0,1,5,6Z" transform="translate(6) rotate(90)" fill="#202124"/>
          </g>
        </g>
      </g>
      <g id="big_new" data-name="big new" transform="translate(310 1268)" clip-path="url(#clip-path-7)">
        <g id="big_new-2" data-name="big new" transform="translate(-310 -1198)">
          <rect id="Image-4" data-name="Image" width="327" height="300" rx="6" transform="translate(310 1197)" fill="url(#pattern-5)"/>
          <text id="Lorem_ipsum_dolor_sit_amet_in_eam_odio_amet_vix_id_nullam_detracto_vidit_vituperatoribus_duo_id._Affert_detraxit_voluptatum_vis_eu_inermis_eloquentiam." data-name="Lorem ipsum dolor sit amet, in eam odio amet, vix id nullam detracto, vidit vituperatoribus duo id. Affert detraxit voluptatum vis eu, inermis eloquentiam." transform="translate(334 1369)" fill="#fff" font-size="16" font-family="Helvetica"><tspan x="0" y="12">Lorem ipsum dolor sit amet, in eam </tspan><tspan x="0" y="38">odio amet, vix id nullam detracto, vidit </tspan><tspan x="0" y="64">vituperatoribus duo id. Affert detraxit </tspan></text>
          <text id="Large_article_title_mobile_layout" data-name="Large article title mobile layout" transform="translate(334 1301)" fill="#fff" font-size="24" font-family="Helvetica-Bold, Helvetica" font-weight="700"><tspan x="0" y="18">Large article title mobile </tspan><tspan x="0" y="52">layout</tspan></text>
          <g id="time-5" data-name="time" transform="translate(81 352)">
            <text id="_2m_ago-2" data-name="2m ago" transform="translate(279 1109)" fill="#cbd0d3" font-size="13" font-family="Helvetica-Oblique, Helvetica" font-style="oblique"><tspan x="0" y="0">2m ago</tspan></text>
            <path id="Path_6" data-name="Path 6" d="M8,0a8,8,0,1,0,8,8A8.024,8.024,0,0,0,8,0ZM8,14a6,6,0,1,1,6-6A6.018,6.018,0,0,1,8,14ZM9,7.6l2.7,2.7-1.4,1.4L7,8.4V3H9Z" transform="translate(253 1097)" fill="#cbd0d3"/>
          </g>
          <text id="CITY" transform="translate(334 1229)" fill="#fff" font-size="16" font-family="Helvetica-Bold, Helvetica" font-weight="700"><tspan x="0" y="12">CITY</tspan></text>
        </g>
        <g id="big_new-3" data-name="big new" transform="translate(-310 -858)">
          <rect id="Image-5" data-name="Image" width="327" height="300" rx="6" transform="translate(310 1197)" fill="url(#pattern-6)"/>
          <text id="Lorem_ipsum_dolor_sit_amet_in_eam_odio_amet_vix_id_nullam_detracto_vidit_vituperatoribus_duo_id._Affert_detraxit_voluptatum_vis_eu_inermis_eloquentiam.-2" data-name="Lorem ipsum dolor sit amet, in eam odio amet, vix id nullam detracto, vidit vituperatoribus duo id. Affert detraxit voluptatum vis eu, inermis eloquentiam." transform="translate(334 1369)" fill="#fff" font-size="16" font-family="Helvetica"><tspan x="0" y="12">Lorem ipsum dolor sit amet, in eam </tspan><tspan x="0" y="38">odio amet, vix id nullam detracto, vidit </tspan><tspan x="0" y="64">vituperatoribus duo id. Affert detraxit </tspan></text>
          <text id="Large_article_title_mobile_layout-2" data-name="Large article title mobile layout" transform="translate(334 1301)" fill="#fff" font-size="24" font-family="Helvetica-Bold, Helvetica" font-weight="700"><tspan x="0" y="18">Large article title mobile </tspan><tspan x="0" y="52">layout</tspan></text>
          <g id="time-6" data-name="time" transform="translate(81 352)">
            <text id="_2d_ago" data-name="2d ago" transform="translate(279 1109)" fill="#cbd0d3" font-size="13" font-family="Helvetica-Oblique, Helvetica" font-style="oblique"><tspan x="0" y="0">2d ago</tspan></text>
            <path id="Path_6-2" data-name="Path 6" d="M8,0a8,8,0,1,0,8,8A8.024,8.024,0,0,0,8,0ZM8,14a6,6,0,1,1,6-6A6.018,6.018,0,0,1,8,14ZM9,7.6l2.7,2.7-1.4,1.4L7,8.4V3H9Z" transform="translate(253 1097)" fill="#cbd0d3"/>
          </g>
          <text id="TRAVEL" transform="translate(334 1229)" fill="#fff" font-size="16" font-family="Helvetica-Bold, Helvetica" font-weight="700"><tspan x="0" y="12">TRAVEL</tspan></text>
        </g>
      </g>
      <g id="new" transform="translate(310 1988)" clip-path="url(#clip-path-8)">
        <g id="new-2" data-name="new" transform="translate(-1300 -257)">
          <rect id="_161975_1024x768" data-name="161975_1024x768" width="327" height="180" rx="6" transform="translate(1300 257)" fill="url(#pattern-7)"/>
          <text id="Small_title" data-name="Small title" transform="translate(1300 457)" fill="#202124" font-size="16" font-family="AcuminPro-Bold, Acumin Pro" font-weight="700"><tspan x="0" y="12">Small title</tspan></text>
          <g id="time-7" data-name="time" transform="translate(1047 -614)">
            <text id="_3h_ago_by_Worldnews" data-name="3h ago by Worldnews" transform="translate(279 1110)" fill="#a6adb4" font-size="13" font-family="Helvetica-Oblique, Helvetica" font-style="oblique"><tspan x="0" y="0">3h ago by </tspan><tspan y="0" text-decoration="underline">Worldnews</tspan></text>
            <g id="time-8" data-name="time" transform="translate(253 1097)" clip-path="url(#clip-path-3)">
              <path id="Path_5-3" data-name="Path 5" d="M8,0a8,8,0,1,0,8,8A8.024,8.024,0,0,0,8,0ZM8,14a6,6,0,1,1,6-6A6.018,6.018,0,0,1,8,14ZM9,7.6l2.7,2.7-1.4,1.4L7,8.4V3H9Z" fill="#cbd0d3"/>
            </g>
          </g>
        </g>
        <g id="new-3" data-name="new" transform="translate(-1300 25)">
          <rect id="roberto-nickson-g-744100-unsplash" width="327" height="180" rx="6" transform="translate(1300 257)" fill="url(#pattern-8)"/>
          <text id="Small_title-2" data-name="Small title" transform="translate(1300 457)" fill="#202124" font-size="16" font-family="AcuminPro-Bold, Acumin Pro" font-weight="700"><tspan x="0" y="12">Small title</tspan></text>
          <g id="time-9" data-name="time" transform="translate(1047 -614)">
            <text id="_4h_ago_by_Days" data-name="4h ago by Days" transform="translate(279 1110)" fill="#a6adb4" font-size="13" font-family="Helvetica-Oblique, Helvetica" font-style="oblique"><tspan x="0" y="0">4h ago by </tspan><tspan y="0" text-decoration="underline">Days</tspan></text>
            <g id="time-10" data-name="time" transform="translate(253 1097)" clip-path="url(#clip-path-3)">
              <path id="Path_5-4" data-name="Path 5" d="M8,0a8,8,0,1,0,8,8A8.024,8.024,0,0,0,8,0ZM8,14a6,6,0,1,1,6-6A6.018,6.018,0,0,1,8,14ZM9,7.6l2.7,2.7-1.4,1.4L7,8.4V3H9Z" fill="#cbd0d3"/>
            </g>
          </g>
        </g>
        <g id="new-4" data-name="new" transform="translate(-1300 307)">
          <rect id="tom-mussak-108425-unsplash" width="327" height="180" rx="6" transform="translate(1300 257)" fill="url(#pattern-9)"/>
          <text id="Small_title-3" data-name="Small title" transform="translate(1300 457)" fill="#202124" font-size="16" font-family="AcuminPro-Bold, Acumin Pro" font-weight="700"><tspan x="0" y="12">Small title</tspan></text>
          <g id="time-11" data-name="time" transform="translate(1047 -614)">
            <text id="_3h_ago_by_Monica" data-name="3h ago by Monica" transform="translate(279 1110)" fill="#a6adb4" font-size="13" font-family="Helvetica-Oblique, Helvetica" font-style="oblique"><tspan x="0" y="0">3h ago by </tspan><tspan y="0" text-decoration="underline">Monica</tspan></text>
            <g id="time-12" data-name="time" transform="translate(253 1097)" clip-path="url(#clip-path-3)">
              <path id="Path_5-5" data-name="Path 5" d="M8,0a8,8,0,1,0,8,8A8.024,8.024,0,0,0,8,0ZM8,14a6,6,0,1,1,6-6A6.018,6.018,0,0,1,8,14ZM9,7.6l2.7,2.7-1.4,1.4L7,8.4V3H9Z" fill="#cbd0d3"/>
            </g>
          </g>
        </g>
      </g>
      <path id="divider-2" data-name="divider" d="M4427.848,210.677h327" transform="translate(-4117.848 1737.322)" fill="none" stroke="#ebeded" stroke-linecap="round" stroke-width="2"/>
    </g>
    <g id="more_news" data-name="more news" transform="translate(-1220 428)">
      <rect id="Base-6" data-name="Base" width="375" height="478" transform="translate(1220 48)" fill="#fff"/>
      <g id="title-4" data-name="title" transform="translate(-56 -44)">
        <text id="MORE_NEWS-2" data-name="MORE NEWS" transform="translate(1300 132)" fill="#202124" font-size="24" font-family="Helvetica-Bold, Helvetica" font-weight="700"><tspan x="0" y="18">MORE NEWS</tspan></text>
        <g id="arrows">
          <g id="arrow-5" data-name="arrow" transform="translate(1621 137)" clip-path="url(#clip-path-5)">
            <path id="arrow-6" data-name="arrow" d="M5,6a.908.908,0,0,1-.7-.3l-4-4A.967.967,0,0,1,.3.3.967.967,0,0,1,1.7.3L5,3.6,8.3.3A.967.967,0,0,1,9.7.3a.967.967,0,0,1,0,1.4l-4,4A.908.908,0,0,1,5,6Z" transform="translate(0 10) rotate(-90)" fill="#202124"/>
          </g>
          <g id="arrow_back-5" data-name="arrow back" transform="translate(1583 137)" opacity="0.3">
            <path id="arrow_back-6" data-name="arrow back" d="M5,6a.908.908,0,0,1-.7-.3l-4-4A.967.967,0,0,1,.3.3.967.967,0,0,1,1.7.3L5,3.6,8.3.3A.967.967,0,0,1,9.7.3a.967.967,0,0,1,0,1.4l-4,4A.908.908,0,0,1,5,6Z" transform="translate(6) rotate(90)" fill="#202124"/>
          </g>
        </g>
        <path id="divider-3" data-name="divider" d="M4427.848,210.677h327" transform="translate(-3127.848 -18.677)" fill="none" stroke="#ebeded" stroke-linecap="round" stroke-width="2"/>
      </g>
      <g id="new-5" data-name="new" transform="translate(1244 188)" clip-path="url(#clip-path-13)">
        <g id="new-6" data-name="new" transform="translate(-1300 -257)">
          <text id="TRAVEL-2" data-name="TRAVEL" transform="translate(1300 259)" fill="#fa6980" font-size="16" font-family="Helvetica-Bold, Helvetica" font-weight="700"><tspan x="0" y="12">TRAVEL</tspan></text>
          <text id="Article_title" data-name="Article title" transform="translate(1300 293)" fill="#202124" font-size="16" font-family="Helvetica-Bold, Helvetica" font-weight="700"><tspan x="0" y="12">Article title</tspan></text>
          <text id="Lorem_ipsum_dolor_sit_amet_ipsum_labitur_lucilius_mel_id_ad_has_appareat_" data-name="Lorem ipsum dolor sit amet, ipsum labitur lucilius mel id, ad has appareat…" transform="translate(1300 319)" fill="#a6adb4" font-size="16" font-family="AcuminPro-Regular, Acumin Pro"><tspan x="0" y="12">Lorem ipsum dolor sit amet, ipsum labitur </tspan><tspan x="0" y="38">lucilius mel id, ad has appareat…</tspan></text>
          <g id="time-13" data-name="time" transform="translate(0 -4)">
            <text id="_2m_ago-3" data-name="2m ago" transform="translate(1326 387)" fill="#a6adb4" font-size="13" font-family="Helvetica-Oblique, Helvetica" font-style="oblique"><tspan x="0" y="0">2m ago</tspan></text>
            <g id="time-14" data-name="time" transform="translate(1300 375)" clip-path="url(#clip-path-3)">
              <path id="Path_5-6" data-name="Path 5" d="M8,0a8,8,0,1,0,8,8A8.024,8.024,0,0,0,8,0ZM8,14a6,6,0,1,1,6-6A6.018,6.018,0,0,1,8,14ZM9,7.6l2.7,2.7-1.4,1.4L7,8.4V3H9Z" fill="#cbd0d3"/>
            </g>
          </g>
        </g>
        <g id="new-7" data-name="new" transform="translate(-1300 -89)">
          <text id="TECHNOLOGY" transform="translate(1300 259)" fill="#fa6980" font-size="16" font-family="Helvetica-Bold, Helvetica" font-weight="700"><tspan x="0" y="12">TECHNOLOGY</tspan></text>
          <text id="Article_title-2" data-name="Article title" transform="translate(1300 293)" fill="#202124" font-size="16" font-family="Helvetica-Bold, Helvetica" font-weight="700"><tspan x="0" y="12">Article title</tspan></text>
          <text id="Lorem_ipsum_dolor_sit_amet_ipsum_labitur_lucilius_mel_id_ad_has_appareat_2" data-name="Lorem ipsum dolor sit amet, ipsum labitur lucilius mel id, ad has appareat…" transform="translate(1300 319)" fill="#a6adb4" font-size="16" font-family="AcuminPro-Regular, Acumin Pro"><tspan x="0" y="12">Lorem ipsum dolor sit amet, ipsum labitur </tspan><tspan x="0" y="38">lucilius mel id, ad has appareat…</tspan></text>
          <g id="time-15" data-name="time" transform="translate(0 -4)">
            <text id="_1h_ago-2" data-name="1h ago" transform="translate(1326 387)" fill="#a6adb4" font-size="13" font-family="Helvetica-Oblique, Helvetica" font-style="oblique"><tspan x="0" y="0">1h ago</tspan></text>
            <g id="time-16" data-name="time" transform="translate(1300 375)" clip-path="url(#clip-path-3)">
              <path id="Path_5-7" data-name="Path 5" d="M8,0a8,8,0,1,0,8,8A8.024,8.024,0,0,0,8,0ZM8,14a6,6,0,1,1,6-6A6.018,6.018,0,0,1,8,14ZM9,7.6l2.7,2.7-1.4,1.4L7,8.4V3H9Z" fill="#cbd0d3"/>
            </g>
          </g>
        </g>
      </g>
    </g>
    <g id="header-2" data-name="header">
      <rect id="bg" width="375" height="88" fill="#f6f8f9"/>
      <g id="Status_Bar_Light" data-name="Status Bar Light" clip-path="url(#clip-path-16)">
        <g id="Bars_Status_Bar_Light_Status_Bar" data-name="Bars/Status Bar/Light Status Bar" transform="translate(-13 -80)">
          <path id="Background" d="M0-44H375V0H0Z" transform="translate(13 124)" fill="none"/>
          <g id="Battery" transform="translate(13 80)">
            <g id="Shape" transform="translate(0 44)" fill="none" fill-rule="evenodd" opacity="0.35">
              <path d="M338.667-26.667h16.667A2.667,2.667,0,0,1,358-24v6h0a2.667,2.667,0,0,1-2.667,2.667H338.667A2.667,2.667,0,0,1,336-18v-6h0A2.667,2.667,0,0,1,338.667-26.667Z" stroke="none"/>
              <path d="M 338.6666870117188 -25.66666984558105 C 337.7476806640625 -25.66666984558105 337 -24.91900062561035 337 -24 L 337 -18 C 337 -17.08099937438965 337.7476806640625 -16.33333015441895 338.6666870117188 -16.33333015441895 L 355.3333129882812 -16.33333015441895 C 356.2523193359375 -16.33333015441895 357 -17.08099937438965 357 -18 L 357 -24 C 357 -24.91900062561035 356.2523193359375 -25.66666984558105 355.3333129882812 -25.66666984558105 L 338.6666870117188 -25.66666984558105 M 338.6666870117188 -26.66666984558105 L 355.3333129882812 -26.66666984558105 C 356.8060913085938 -26.66666984558105 358 -25.47275924682617 358 -24 L 358 -18 C 358 -16.52724075317383 356.8060913085938 -15.33333015441895 355.3333129882812 -15.33333015441895 L 338.6666870117188 -15.33333015441895 C 337.1939086914062 -15.33333015441895 336 -16.52724075317383 336 -18 L 336 -24 C 336 -25.47275924682617 337.1939086914062 -26.66666984558105 338.6666870117188 -26.66666984558105 Z" stroke="none" fill="#343638"/>
            </g>
            <path id="Shape-2" data-name="Shape" d="M359-23v4a2.17,2.17,0,0,0,1.328-2A2.17,2.17,0,0,0,359-23" transform="translate(0 44)" fill="#343638"/>
            <path id="Shape-3" data-name="Shape" d="M339.333-24.667h15.333A1.333,1.333,0,0,1,356-23.333v4.667h0a1.333,1.333,0,0,1-1.333,1.333H339.333A1.333,1.333,0,0,1,338-18.667v-4.667h0A1.333,1.333,0,0,1,339.333-24.667Z" transform="translate(0 44)" fill="#343638"/>
          </g>
          <path id="Shape-4" data-name="Shape" d="M323.33-24.392a8.64,8.64,0,0,1,5.953,2.378.308.308,0,0,0,.433,0l1.156-1.167a.322.322,0,0,0,.093-.229.322.322,0,0,0-.1-.227,10.9,10.9,0,0,0-15.08,0,.322.322,0,0,0-.1.227.322.322,0,0,0,.093.229l1.156,1.167a.308.308,0,0,0,.433,0,8.641,8.641,0,0,1,5.954-2.378Zm0,3.8a4.907,4.907,0,0,1,3.294,1.27.31.31,0,0,0,.433-.006l1.155-1.167a.322.322,0,0,0,.094-.23.322.322,0,0,0-.1-.229,7.159,7.159,0,0,0-9.752,0,.322.322,0,0,0-.1.229.322.322,0,0,0,.094.23l1.154,1.167a.31.31,0,0,0,.433.006,4.907,4.907,0,0,1,3.292-1.27Zm2.219,2.784a.314.314,0,0,0,.094-.231.314.314,0,0,0-.1-.226,3.422,3.422,0,0,0-4.419,0,.314.314,0,0,0-.1.226.314.314,0,0,0,.094.231l2,2.016a.311.311,0,0,0,.222.093.312.312,0,0,0,.222-.093Z" transform="translate(13 124)" fill="#343638"/>
          <g id="Cellular_Connection" data-name="Cellular Connection" transform="translate(13 80)">
            <path id="Shape-5" data-name="Shape" d="M294.667-19.667h1a1,1,0,0,1,1,1v2a1,1,0,0,1-1,1h-1a1,1,0,0,1-1-1v-2a1,1,0,0,1,1-1Zm4.667-2h1a1,1,0,0,1,1,1v4a1,1,0,0,1-1,1h-1a1,1,0,0,1-1-1v-4A1,1,0,0,1,299.333-21.667ZM304-24h1a1,1,0,0,1,1,1v6.333a1,1,0,0,1-1,1h-1a1,1,0,0,1-1-1V-23A1,1,0,0,1,304-24Zm4.667-2.333h1a1,1,0,0,1,1,1v8.667a1,1,0,0,1-1,1h-1a1,1,0,0,1-1-1v-8.667a1,1,0,0,1,1-1Z" transform="translate(0 44)" fill="#343638"/>
          </g>
          <g id="Bars___Time_Black" data-name="Bars/_/Time Black" transform="translate(34 93)" clip-path="url(#clip-path-17)">
            <path id="Background-2" data-name="Background" d="M21-19H75V-35H21Z" transform="translate(-21 35)" fill="none"/>
            <text id="_Time" data-name="↳ Time" transform="translate(0 2)" fill="#343638" font-size="14" font-family="Helvetica" letter-spacing="0em"><tspan x="13.37" y="11">9:41</tspan></text>
          </g>
        </g>
      </g>
      <text id="LOGO" transform="translate(169 69)" fill="#a6adb4" font-size="13" font-family="Helvetica-Bold, Helvetica" font-weight="700"><tspan x="0" y="0">LOGO</tspan></text>
      <g id="avatar" transform="translate(-741 -700)" clip-path="url(#clip-path-18)">
        <rect id="_693a04e6b83f570445ef918b0170fa77--instagram-com-beauty-photos" data-name="693a04e6b83f570445ef918b0170fa77--instagram-com-beauty-photos" width="16" height="24" transform="translate(1084 753.333)" fill="url(#pattern-9)"/>
      </g>
      <g id="menu_icon" data-name="menu icon" transform="translate(16 57)" clip-path="url(#clip-path-19)">
        <path id="menu_icon-2" data-name="menu icon" d="M-6407-6020a1,1,0,0,1-1-1,1,1,0,0,1,1-1h14a1,1,0,0,1,1,1,1,1,0,0,1-1,1Zm0-6a1,1,0,0,1-1-1,1,1,0,0,1,1-1h8a1,1,0,0,1,1,1,1,1,0,0,1-1,1Zm0-6a1,1,0,0,1-1-1,1,1,0,0,1,1-1h14a1,1,0,0,1,1,1,1,1,0,0,1-1,1Z" transform="translate(6408 6034)" fill="#343638"/>
      </g>
    </g>
    <rect id="base-7" data-name="base" width="375" height="310" transform="translate(0 3411)" opacity="0.23"/>
    <text id="ABOUT" transform="translate(40 3479)" fill="#fff" font-size="11" font-family="Helvetica-Bold, Helvetica" font-weight="700" opacity="0.5"><tspan x="0" y="0">ABOUT</tspan></text>
    <text id="TESTIMONIALS" transform="translate(150 3479)" fill="#fff" font-size="11" font-family="Helvetica-Bold, Helvetica" font-weight="700" opacity="0.5"><tspan x="0" y="0">TESTIMONIALS</tspan></text>
    <text id="TERMS" transform="translate(40 3561)" fill="#fff" font-size="11" font-family="Helvetica-Bold, Helvetica" font-weight="700" opacity="0.5"><tspan x="0" y="0">TERMS</tspan></text>
    <text id="INTEGRATIONS" transform="translate(150 3561)" fill="#fff" font-size="11" font-family="Helvetica-Bold, Helvetica" font-weight="700" opacity="0.5"><tspan x="0" y="0">INTEGRATIONS</tspan></text>
    <text id="GUIDLINES" transform="translate(40 3602)" fill="#fff" font-size="11" font-family="Helvetica-Bold, Helvetica" font-weight="700" opacity="0.5"><tspan x="0" y="0">GUIDLINES</tspan></text>
    <text id="CAREERS" transform="translate(150 3602)" fill="#fff" font-size="11" font-family="Helvetica-Bold, Helvetica" font-weight="700" opacity="0.5"><tspan x="0" y="0">CAREERS</tspan></text>
    <text id="HELP" transform="translate(40 3520)" fill="#fff" font-size="11" font-family="Helvetica-Bold, Helvetica" font-weight="700" opacity="0.5"><tspan x="0" y="0">HELP</tspan></text>
    <text id="ADVERTISE" transform="translate(150 3520)" fill="#fff" font-size="11" font-family="Helvetica-Bold, Helvetica" font-weight="700" opacity="0.5"><tspan x="0" y="0">ADVERTISE</tspan></text>
    <g id="Social" transform="translate(-1130 1659)">
      <g id="facebook" transform="translate(1250 2006)" clip-path="url(#clip-path-20)">
        <rect id="Rectangle_392" data-name="Rectangle 392" width="16" height="16" fill="none"/>
        <path id="Path_1" data-name="Path 1" d="M85.422,16V8.711h2.489l.356-2.844H85.422V4.089c0-.8.267-1.422,1.422-1.422h1.511V.089C88,.089,87.111,0,86.133,0a3.431,3.431,0,0,0-3.644,3.733V5.867H80V8.711h2.489V16Z" transform="translate(-76 0.001)" fill="#fff" fill-rule="evenodd"/>
      </g>
      <g id="twitter" transform="translate(1210 2006)" clip-path="url(#clip-path-3)">
        <rect id="Rectangle_393" data-name="Rectangle 393" width="16" height="16" fill="none"/>
        <path id="Path_2" data-name="Path 2" d="M43.067,14.978A9.25,9.25,0,0,0,52.4,5.644V5.2A7.225,7.225,0,0,0,54,3.511a7.379,7.379,0,0,1-1.867.533,3.458,3.458,0,0,0,1.422-1.778,8.153,8.153,0,0,1-2.044.8A3.175,3.175,0,0,0,49.111,2a3.34,3.34,0,0,0-3.289,3.289A1.733,1.733,0,0,0,45.911,6a9.19,9.19,0,0,1-6.756-3.467,3.4,3.4,0,0,0-.444,1.689,3.532,3.532,0,0,0,1.422,2.756,3,3,0,0,1-1.511-.444h0a3.249,3.249,0,0,0,2.667,3.2,2.74,2.74,0,0,1-.889.089,1.513,1.513,0,0,1-.622-.089,3.367,3.367,0,0,0,3.111,2.311A6.711,6.711,0,0,1,38.8,13.467a2.461,2.461,0,0,1-.8-.089,8.39,8.39,0,0,0,5.067,1.6" transform="translate(-38 -0.001)" fill="#fff" fill-rule="evenodd"/>
      </g>
      <g id="instagram" transform="translate(1170 2006)" clip-path="url(#clip-path-3)">
        <path id="Path_3" data-name="Path 3" d="M8,1.422a24.53,24.53,0,0,1,3.2.089,4.123,4.123,0,0,1,1.511.267,3.122,3.122,0,0,1,1.511,1.511A4.123,4.123,0,0,1,14.489,4.8c0,.8.089,1.067.089,3.2a24.53,24.53,0,0,1-.089,3.2,4.123,4.123,0,0,1-.267,1.511,3.122,3.122,0,0,1-1.511,1.511,4.123,4.123,0,0,1-1.511.267c-.8,0-1.067.089-3.2.089a24.53,24.53,0,0,1-3.2-.089,4.123,4.123,0,0,1-1.511-.267,3.122,3.122,0,0,1-1.511-1.511A4.123,4.123,0,0,1,1.511,11.2c0-.8-.089-1.067-.089-3.2a24.53,24.53,0,0,1,.089-3.2,4.123,4.123,0,0,1,.267-1.511A3.192,3.192,0,0,1,2.4,2.4a1.5,1.5,0,0,1,.889-.622A4.123,4.123,0,0,1,4.8,1.511,24.53,24.53,0,0,1,8,1.422M8,0A26.264,26.264,0,0,0,4.711.089,5.488,5.488,0,0,0,2.756.444a3.48,3.48,0,0,0-1.422.889A3.48,3.48,0,0,0,.444,2.756,4.05,4.05,0,0,0,.089,4.711,26.264,26.264,0,0,0,0,8a26.264,26.264,0,0,0,.089,3.289,5.488,5.488,0,0,0,.356,1.956,3.48,3.48,0,0,0,.889,1.422,3.48,3.48,0,0,0,1.422.889,5.488,5.488,0,0,0,1.956.356A26.264,26.264,0,0,0,8,16a26.264,26.264,0,0,0,3.289-.089,5.488,5.488,0,0,0,1.956-.356,3.729,3.729,0,0,0,2.311-2.311,5.488,5.488,0,0,0,.356-1.956C15.911,10.4,16,10.133,16,8a26.264,26.264,0,0,0-.089-3.289,5.488,5.488,0,0,0-.356-1.956,3.48,3.48,0,0,0-.889-1.422A3.48,3.48,0,0,0,13.244.444,5.488,5.488,0,0,0,11.289.089,26.264,26.264,0,0,0,8,0M8,3.911A4.023,4.023,0,0,0,3.911,8,4.089,4.089,0,1,0,8,3.911m0,6.756A2.619,2.619,0,0,1,5.333,8,2.619,2.619,0,0,1,8,5.333,2.619,2.619,0,0,1,10.667,8,2.619,2.619,0,0,1,8,10.667m4.267-7.911a.978.978,0,1,0,.978.978.986.986,0,0,0-.978-.978" fill="#fff" fill-rule="evenodd"/>
      </g>
      <g id="web" transform="translate(1290 2006)" clip-path="url(#clip-path-3)">
        <path id="Path_4" data-name="Path 4" d="M2.4,2.4A7.263,7.263,0,0,1,8,0a7.263,7.263,0,0,1,5.6,2.4A7.263,7.263,0,0,1,16,8a7.263,7.263,0,0,1-2.4,5.6A7.263,7.263,0,0,1,8,16a7.263,7.263,0,0,1-5.6-2.4A7.984,7.984,0,0,1,0,8,7.263,7.263,0,0,1,2.4,2.4Zm6.667,12a3.276,3.276,0,0,0,2-1.2A5.824,5.824,0,0,0,12,10.4a2.208,2.208,0,0,0-.667-1.6A2.347,2.347,0,0,0,9.6,8H8.267a3.893,3.893,0,0,1-1.2-.267,1.21,1.21,0,0,1-.4-.933.693.693,0,0,1,.267-.533A1.011,1.011,0,0,1,7.467,6a.91.91,0,0,1,.667.4c.267.133.4.267.533.267A.8.8,0,0,0,9.2,6.533.8.8,0,0,0,9.333,6a2.122,2.122,0,0,0-.667-1.333,5.515,5.515,0,0,0,.667-2.533.287.287,0,0,0-.267-.267A4.122,4.122,0,0,0,8,1.6,6.67,6.67,0,0,0,4.533,2.667a3.357,3.357,0,0,0-1.2,2.667A3.414,3.414,0,0,0,4.4,7.867,3.643,3.643,0,0,0,6.933,8.933h0v.533A1.712,1.712,0,0,0,7.467,10.8a1.942,1.942,0,0,0,1.2.8V14c0,.133,0,.133.133.267S8.933,14.4,9.067,14.4Z" fill="#fff"/>
      </g>
    </g>
  </g>
</svg>
