<svg width="59" height="67" viewBox="0 0 59 67" fill="none" xmlns="http://www.w3.org/2000/svg">
<path d="M1 17.2536V49.7464L29.2789 66L57.5578 49.7464V17.2536L29.2789 1L1 17.2536Z" stroke="#DB3F32" stroke-miterlimit="10" stroke-linecap="round" stroke-linejoin="round"/>
<path d="M5.35162 19.7553V47.2449L29.2788 60.9968L53.206 47.2449V19.7553L29.2788 6.00342L5.35162 19.7553Z" fill="#FC7756" stroke="#FC7756" stroke-miterlimit="10" stroke-linecap="round" stroke-linejoin="round"/>
<path d="M53.206 19.7553L29.2788 6.00342L5.35162 19.7553" stroke="#FD9F87" stroke-miterlimit="10" stroke-linecap="round" stroke-linejoin="round"/>
<path d="M53.206 47.2446L29.2788 60.9966L5.35162 47.2446" stroke="#A6503C" stroke-miterlimit="10" stroke-linecap="round" stroke-linejoin="round"/>
<path d="M18.2283 37.8872H17.1854V30.6626L15.3924 31.4653V30.481L18.0643 29.3149H18.2283V37.8872ZM24.4803 34.2427C24.0662 34.77 23.5819 35.0337 23.0272 35.0337C22.4061 35.0337 21.9119 34.772 21.5447 34.2485C21.1776 33.7251 20.994 33.0396 20.994 32.1919C20.994 31.3013 21.1932 30.5864 21.5916 30.0474C21.994 29.5083 22.5408 29.2388 23.2322 29.2388C23.951 29.2388 24.5115 29.5513 24.9139 30.1763C25.3201 30.7974 25.5233 31.6587 25.5233 32.7603V33.0825C25.5233 34.0278 25.451 34.7935 25.3065 35.3794C25.1658 35.9653 24.9569 36.438 24.6795 36.7974C24.4022 37.1567 24.0487 37.4302 23.619 37.6177C23.1893 37.8013 22.6522 37.8931 22.0076 37.8931V36.979H22.1893C22.9237 36.9634 23.4803 36.7407 23.8592 36.311C24.242 35.8774 24.449 35.188 24.4803 34.2427ZM23.2029 34.1372C23.4529 34.1372 23.6971 34.0337 23.9354 33.8267C24.1737 33.6157 24.3592 33.3403 24.492 33.0005V32.5435C24.492 31.8364 24.369 31.2603 24.1229 30.8149C23.8768 30.3657 23.5799 30.1411 23.2322 30.1411C22.8572 30.1411 22.5584 30.3267 22.3358 30.6978C22.117 31.0649 22.0076 31.5435 22.0076 32.1333C22.0076 32.7231 22.1151 33.2056 22.3299 33.5806C22.5447 33.9517 22.8358 34.1372 23.2029 34.1372ZM30.0877 37.8872H29.0447V30.6626L27.2518 31.4653V30.481L29.9237 29.3149H30.0877V37.8872ZM37.4881 34.2485C37.4881 35.5063 37.3045 36.4478 36.9373 37.0728C36.5701 37.6938 35.994 38.0044 35.2088 38.0044C34.4471 38.0044 33.8787 37.7056 33.5037 37.1079C33.1287 36.5103 32.9334 35.6118 32.9178 34.4126V32.9478C32.9178 31.7017 33.1014 30.772 33.4686 30.1587C33.8397 29.5454 34.4158 29.2388 35.1971 29.2388C35.9666 29.2388 36.535 29.5298 36.9022 30.1118C37.2733 30.6938 37.4686 31.5747 37.4881 32.7544V34.2485ZM36.451 32.7661C36.451 31.8638 36.3514 31.1997 36.1522 30.7739C35.9529 30.3442 35.6346 30.1294 35.1971 30.1294C34.7713 30.1294 34.4588 30.3403 34.2596 30.7622C34.0604 31.1802 33.9569 31.813 33.949 32.6606V34.4185C33.949 35.3169 34.0526 35.9927 34.2596 36.4458C34.4666 36.895 34.783 37.1196 35.2088 37.1196C35.6307 37.1196 35.9412 36.9067 36.1404 36.481C36.3397 36.0552 36.4432 35.4048 36.451 34.5298V32.7661ZM40.1834 33.0942H40.8455C41.2713 33.0942 41.5994 32.9634 41.8299 32.7017C42.0604 32.4399 42.1756 32.0825 42.1756 31.6294C42.1756 30.6294 41.7889 30.1294 41.0154 30.1294C40.6444 30.1294 40.3533 30.2642 40.1424 30.5337C39.9315 30.8032 39.826 31.1567 39.826 31.5942H38.7947C38.7947 30.9106 39.0018 30.3481 39.4158 29.9067C39.8338 29.4614 40.367 29.2388 41.0154 29.2388C41.6873 29.2388 42.2205 29.4497 42.6151 29.8716C43.0096 30.2896 43.2069 30.8833 43.2069 31.6528C43.2069 32.0474 43.1033 32.4165 42.8963 32.7603C42.6932 33.1001 42.4276 33.3501 42.0994 33.5103C42.9041 33.8071 43.3065 34.4731 43.3065 35.5083C43.3065 36.27 43.0936 36.8774 42.6678 37.3306C42.2459 37.7798 41.6932 38.0044 41.0096 38.0044C40.3338 38.0044 39.7869 37.7915 39.369 37.3657C38.9549 36.936 38.7479 36.3599 38.7479 35.6372H39.785C39.785 36.0903 39.8944 36.4517 40.1131 36.7212C40.3319 36.9868 40.6307 37.1196 41.0096 37.1196C41.3963 37.1196 41.7029 36.9888 41.9295 36.7271C42.16 36.4653 42.2752 36.0669 42.2752 35.5317C42.2752 34.4966 41.785 33.979 40.8045 33.979H40.1834V33.0942Z" fill="white"/>
</svg>
