<svg viewbox="0 0 16 14" xmlns="http://www.w3.org/2000/svg">
  <path id="menu_icon-2" data-name="menu icon" d="M-6407-6020a1,1,0,0,1-1-1,1,1,0,0,1,1-1h14a1,1,0,0,1,1,1,1,1,0,0,1-1,1Zm0-6a1,1,0,0,1-1-1,1,1,0,0,1,1-1h8a1,1,0,0,1,1,1,1,1,0,0,1-1,1Zm0-6a1,1,0,0,1-1-1,1,1,0,0,1,1-1h14a1,1,0,0,1,1,1,1,1,0,0,1-1,1Z" transform="translate(6408 6034)" fill="#343638"><g id="menu_icon" data-name="menu icon" transform="translate(16 57)" clip-path="url(#clip-path-19)">
        <path id="menu_icon-2" data-name="menu icon" d="M-6407-6020a1,1,0,0,1-1-1,1,1,0,0,1,1-1h14a1,1,0,0,1,1,1,1,1,0,0,1-1,1Zm0-6a1,1,0,0,1-1-1,1,1,0,0,1,1-1h8a1,1,0,0,1,1,1,1,1,0,0,1-1,1Zm0-6a1,1,0,0,1-1-1,1,1,0,0,1,1-1h14a1,1,0,0,1,1,1,1,1,0,0,1-1,1Z" transform="translate(6408 6034)" fill="#343638"/>
      </g></path>
</svg>

