<svg width="17" height="20" viewBox="0 0 17 20" fill="none" xmlns="http://www.w3.org/2000/svg">
<path d="M0.4198 0.211243H7.95385C8.94373 0.211243 9.88361 0.305402 10.7735 0.496198C11.6634 0.686995 12.4408 1.00416 13.1107 1.45018C13.7806 1.8962 14.3106 2.49584 14.7055 3.24912C15.1005 4.00239 15.2979 4.94399 15.2979 6.06894C15.2979 7.43177 14.9405 8.59142 14.2256 9.5454C13.5107 10.4994 12.4658 11.104 11.091 11.3592L16.0403 19.5089H10.896L6.8265 11.7953H4.70926V19.5089H0.4198V0.211243ZM4.70926 8.19744H7.23894C7.6239 8.19744 8.03134 8.18505 8.46129 8.15779C8.89124 8.13053 9.28119 8.04876 9.63114 7.91248C9.9786 7.7762 10.2686 7.5631 10.496 7.27319C10.726 6.98328 10.841 6.57443 10.841 6.04664C10.841 5.55602 10.741 5.16452 10.5385 4.87461C10.3361 4.58469 10.0811 4.36169 9.76863 4.20806C9.45617 4.05443 9.09871 3.95036 8.69626 3.89337C8.29381 3.83638 7.89886 3.8116 7.51391 3.8116H4.70926V8.19744Z" fill="white"/>
</svg>
