<svg width="15" height="21" viewBox="0 0 15 21" fill="none" xmlns="http://www.w3.org/2000/svg">
<path d="M11.9354 5.92689C11.5879 5.49079 11.1155 5.16866 10.5205 4.96052C9.92561 4.75238 9.36068 4.64583 8.82825 4.64583C8.51579 4.64583 8.19583 4.683 7.86587 4.75486C7.53591 4.82672 7.22345 4.9407 6.93099 5.0968C6.63852 5.25043 6.39855 5.4561 6.21607 5.70884C6.0336 5.96406 5.94111 6.2738 5.94111 6.63557C5.94111 7.21787 6.16108 7.66141 6.60103 7.97114C7.04097 8.28087 7.5959 8.54353 8.26582 8.76158C8.93574 8.97964 9.65315 9.19769 10.4231 9.41574C11.193 9.6338 11.9129 9.94353 12.5803 10.3425C13.2502 10.7414 13.8026 11.2791 14.2426 11.9506C14.6825 12.6221 14.9025 13.5216 14.9025 14.649C14.9025 15.7219 14.7 16.6586 14.2976 17.4565C13.8926 18.2568 13.3502 18.9184 12.6628 19.4462C11.9754 19.974 11.178 20.363 10.2706 20.6182C9.36318 20.8734 8.4058 20.9998 7.39593 20.9998C6.13108 20.9998 4.95873 20.809 3.87637 20.4274C2.794 20.0458 1.78663 19.4288 0.851746 18.574L3.90386 15.2487C4.34381 15.831 4.89874 16.2795 5.56615 16.5991C6.23607 16.9188 6.92849 17.0773 7.6409 17.0773C7.98836 17.0773 8.34331 17.0352 8.70076 16.9534C9.05822 16.8717 9.37818 16.7503 9.66315 16.5867C9.94811 16.4232 10.1756 16.215 10.3506 15.9598C10.5255 15.7046 10.6105 15.4048 10.6105 15.0603C10.6105 14.478 10.3856 14.0196 9.93561 13.6851C9.48567 13.3481 8.92324 13.0632 8.24332 12.8278C7.56341 12.5924 6.831 12.3545 6.04359 12.1191C5.25619 11.8837 4.52129 11.5641 3.84387 11.1651C3.16646 10.7662 2.60152 10.2384 2.15408 9.58424C1.70414 8.93008 1.47917 8.06778 1.47917 6.99486C1.47917 5.95911 1.68414 5.04972 2.09659 4.26919C2.50904 3.48866 3.05897 2.8345 3.74638 2.30672C4.43379 1.77893 5.2262 1.38495 6.12609 1.12229C7.02348 0.859635 7.94836 0.72583 8.90324 0.72583C10.0031 0.72583 11.0655 0.879458 12.0928 1.18919C13.1202 1.49893 14.0451 2.0168 14.87 2.74282L11.9354 5.92689Z" fill="white"/>
</svg>
