<svg width="17" height="20" viewBox="0 0 17 20" fill="none" xmlns="http://www.w3.org/2000/svg">
<path d="M16.5025 12.0679C16.5025 13.2127 16.3276 14.2658 15.9801 15.2296C15.6327 16.1935 15.1152 17.0286 14.4278 17.7373C13.7404 18.4459 12.883 19.001 11.8556 19.3999C10.8283 19.7989 9.6459 19.9996 8.30857 19.9996C6.95124 19.9996 5.76139 19.7989 4.73402 19.3999C3.70665 19.001 2.84925 18.4459 2.16184 17.7373C1.47442 17.0286 0.956991 16.1935 0.609535 15.2296C0.262078 14.2658 0.0870972 13.2127 0.0870972 12.0679V0.211243H4.37656V11.9043C4.37656 12.504 4.47155 13.059 4.66402 13.567C4.8565 14.075 5.12647 14.516 5.47642 14.8902C5.82388 15.2619 6.24133 15.5542 6.72626 15.7624C7.2112 15.9705 7.73864 16.0771 8.30607 16.0771C8.8735 16.0771 9.39593 15.973 9.87337 15.7624C10.3508 15.5542 10.7608 15.2619 11.1107 14.8902C11.4582 14.5185 11.7281 14.0774 11.9231 13.567C12.1156 13.059 12.2106 12.504 12.2106 11.9043V0.211243H16.5V12.0679H16.5025Z" fill="white"/>
</svg>
