<svg width="20" height="20" viewBox="0 0 20 20" fill="none" xmlns="http://www.w3.org/2000/svg">
<path d="M4.28577 4.16663H18.5715L17.1429 12.7381H5.71434L4.28577 4.16663Z" stroke="white" stroke-width="1.5" stroke-linecap="round" stroke-linejoin="round"/>
<path d="M7.14281 17.5C7.6688 17.5 8.09519 17.0736 8.09519 16.5476C8.09519 16.0216 7.6688 15.5952 7.14281 15.5952C6.61683 15.5952 6.19043 16.0216 6.19043 16.5476C6.19043 17.0736 6.61683 17.5 7.14281 17.5Z" stroke="white" stroke-width="1.5" stroke-linecap="round" stroke-linejoin="round"/>
<path d="M15.7143 17.5C16.2403 17.5 16.6667 17.0736 16.6667 16.5476C16.6667 16.0216 16.2403 15.5952 15.7143 15.5952C15.1884 15.5952 14.762 16.0216 14.762 16.5476C14.762 17.0736 15.1884 17.5 15.7143 17.5Z" stroke="white" stroke-width="1.5" stroke-linecap="round" stroke-linejoin="round"/>
<path d="M4.28573 4.16663H1.42859" stroke="white" stroke-width="1.5" stroke-linecap="round" stroke-linejoin="round"/>
</svg>
