<svg xmlns="http://www.w3.org/2000/svg" viewBox="0 0 16 16">
<path d="M2.4 2.4A7.3 7.3 0 018 0a7.3 7.3 0 015.6 2.4A7.3 7.3 0 0116 8a7.3 7.3 0 01-2.4 5.6A7.3 7.3 0 018 16a7.3 7.3 0 01-5.6-2.4A8 8 0 010 8a7.3 7.3 0 012.4-5.6zm6.7 12a3.3 3.3 0 002-1.2 5.8 5.8 0 00.9-2.8 2.2 2.2 0 00-.7-1.6A2.3 2.3 0 009.6 8H8.3A3.9 3.9 0 017 7.7a1.2 1.2 0 01-.4-.9.7.7 0 01.2-.5 1 1 0 01.6-.3 1 1 0 01.6.4l.6.3a.8.8 0 00.5-.2.8.8 0 00.1-.5 2.1 2.1 0 00-.6-1.3A5.5 5.5 0 009.3 2a.3.3 0 00-.2-.2A4.1 4.1 0 008 1.6a6.7 6.7 0 00-3.5 1 3.4 3.4 0 00-1.2 2.7A3.4 3.4 0 004.4 8a3.6 3.6 0 002.5 1v.6a1.7 1.7 0 00.6 1.3 2 2 0 001.2.8V14l.1.3c.1.2.1.1.3.1z"/>
</svg>
