<svg xmlns="http://www.w3.org/2000/svg" viewBox="0 0 16 16">
<path d="M5.07 14.98a9.25 9.25 0 009.33-9.34V5.2A7.22 7.22 0 0016 3.51a7.38 7.38 0 01-1.87.53 3.46 3.46 0 001.42-1.77 8.15 8.15 0 01-2.04.8A3.17 3.17 0 0011.11 2a3.34 3.34 0 00-3.29 3.29 1.73 1.73 0 00.1.71 9.19 9.19 0 01-6.77-3.47 3.4 3.4 0 00-.44 1.7 3.53 3.53 0 001.42 2.75 3 3 0 01-1.5-.45 3.25 3.25 0 002.66 3.2 2.74 2.74 0 01-.89.1 1.51 1.51 0 01-.62-.1 3.37 3.37 0 003.1 2.31A6.71 6.71 0 01.8 13.47a2.46 2.46 0 01-.8-.1 8.39 8.39 0 005.07 1.6"/>
</svg>
