<svg xmlns="http://www.w3.org/2000/svg">
<path id="mail-2" data-name="mail" d="M0,0V12H16V0ZM8,8,2,2H14Z" fill="#343638" fill-rule="evenodd"><path id="photos-3" data-name="photos" d="M0,0V14H16V0ZM14,12H11L6.5,7.5,2,12V2H14Z" fill="#343638" fill-rule="evenodd"><path id="photos-3" data-name="photos" d="M0,0V14H16V0ZM14,12H11L6.5,7.5,2,12V2H14Z" fill="#343638" fill-rule="evenodd"/></path><path id="photos-3" data-name="photos" d="M0,0V14H16V0ZM14,12H11L6.5,7.5,2,12V2H14Z" fill="#343638" fill-rule="evenodd"/><path id="photos-3" data-name="photos" d="M0,0V14H16V0ZM14,12H11L6.5,7.5,2,12V2H14Z" fill="#343638" fill-rule="evenodd"/></path>
</svg>
